<svg width="110" height="25" viewBox="0 0 110 25" fill="none" xmlns="http://www.w3.org/2000/svg">
<rect width="110" height="25" fill="white"/>
<path d="M11.3711 14.5234C11.3711 13.8594 11.1367 13.3516 10.668 13C10.1992 12.6406 9.35547 12.2656 8.13672 11.875C6.91797 11.4766 5.95312 11.0859 5.24219 10.7031C3.30469 9.65625 2.33594 8.24609 2.33594 6.47266C2.33594 5.55078 2.59375 4.73047 3.10938 4.01172C3.63281 3.28516 4.37891 2.71875 5.34766 2.3125C6.32422 1.90625 7.41797 1.70312 8.62891 1.70312C9.84766 1.70312 10.9336 1.92578 11.8867 2.37109C12.8398 2.80859 13.5781 3.42969 14.1016 4.23438C14.6328 5.03906 14.8984 5.95312 14.8984 6.97656H11.3828C11.3828 6.19531 11.1367 5.58984 10.6445 5.16016C10.1523 4.72266 9.46094 4.50391 8.57031 4.50391C7.71094 4.50391 7.04297 4.6875 6.56641 5.05469C6.08984 5.41406 5.85156 5.89062 5.85156 6.48438C5.85156 7.03906 6.12891 7.50391 6.68359 7.87891C7.24609 8.25391 8.07031 8.60547 9.15625 8.93359C11.1562 9.53516 12.6133 10.2812 13.5273 11.1719C14.4414 12.0625 14.8984 13.1719 14.8984 14.5C14.8984 15.9766 14.3398 17.1367 13.2227 17.9805C12.1055 18.8164 10.6016 19.2344 8.71094 19.2344C7.39844 19.2344 6.20312 18.9961 5.125 18.5195C4.04688 18.0352 3.22266 17.375 2.65234 16.5391C2.08984 15.7031 1.80859 14.7344 1.80859 13.6328H5.33594C5.33594 15.5156 6.46094 16.457 8.71094 16.457C9.54688 16.457 10.1992 16.2891 10.668 15.9531C11.1367 15.6094 11.3711 15.1328 11.3711 14.5234ZM28.4805 12.7773C28.4805 14.7305 28.0352 16.2969 27.1445 17.4766C26.2617 18.6484 25.0664 19.2344 23.5586 19.2344C22.2773 19.2344 21.2422 18.7891 20.4531 17.8984V23.875H17.0664V6.32031H20.207L20.3242 7.5625C21.1445 6.57812 22.2148 6.08594 23.5352 6.08594C25.0977 6.08594 26.3125 6.66406 27.1797 7.82031C28.0469 8.97656 28.4805 10.5703 28.4805 12.6016V12.7773ZM25.0938 12.5312C25.0938 11.3516 24.8828 10.4414 24.4609 9.80078C24.0469 9.16016 23.4414 8.83984 22.6445 8.83984C21.582 8.83984 20.8516 9.24609 20.4531 10.0586V15.25C20.8672 16.0859 21.6055 16.5039 22.668 16.5039C24.2852 16.5039 25.0938 15.1797 25.0938 12.5312ZM37.9375 19C37.7812 18.6953 37.668 18.3164 37.5977 17.8633C36.7773 18.7773 35.7109 19.2344 34.3984 19.2344C33.1562 19.2344 32.125 18.875 31.3047 18.1562C30.4922 17.4375 30.0859 16.5312 30.0859 15.4375C30.0859 14.0938 30.582 13.0625 31.5742 12.3438C32.5742 11.625 34.0156 11.2617 35.8984 11.2539H37.457V10.5273C37.457 9.94141 37.3047 9.47266 37 9.12109C36.7031 8.76953 36.2305 8.59375 35.582 8.59375C35.0117 8.59375 34.5625 8.73047 34.2344 9.00391C33.9141 9.27734 33.7539 9.65234 33.7539 10.1289H30.3672C30.3672 9.39453 30.5938 8.71484 31.0469 8.08984C31.5 7.46484 32.1406 6.97656 32.9688 6.625C33.7969 6.26562 34.7266 6.08594 35.7578 6.08594C37.3203 6.08594 38.5586 6.48047 39.4727 7.26953C40.3945 8.05078 40.8555 9.15234 40.8555 10.5742V16.0703C40.8633 17.2734 41.0312 18.1836 41.3594 18.8008V19H37.9375ZM35.1367 16.6445C35.6367 16.6445 36.0977 16.5352 36.5195 16.3164C36.9414 16.0898 37.2539 15.7891 37.457 15.4141V13.2344H36.1914C34.4961 13.2344 33.5938 13.8203 33.4844 14.9922L33.4727 15.1914C33.4727 15.6133 33.6211 15.9609 33.918 16.2344C34.2148 16.5078 34.6211 16.6445 35.1367 16.6445ZM50.582 9.49609C50.1211 9.43359 49.7148 9.40234 49.3633 9.40234C48.082 9.40234 47.2422 9.83594 46.8438 10.7031V19H43.457V6.32031H46.6562L46.75 7.83203C47.4297 6.66797 48.3711 6.08594 49.5742 6.08594C49.9492 6.08594 50.3008 6.13672 50.6289 6.23828L50.582 9.49609ZM56.8281 13.9141L55.6094 15.1328V19H52.2227V1H55.6094V10.9727L56.2656 10.1289L59.5117 6.32031H63.5781L58.9961 11.6055L63.9766 19H60.0859L56.8281 13.9141ZM77.5586 12.7539H74.7578V19H71.2422V1.9375H77.582C79.5977 1.9375 81.1523 2.38672 82.2461 3.28516C83.3398 4.18359 83.8867 5.45312 83.8867 7.09375C83.8867 8.25781 83.6328 9.23047 83.125 10.0117C82.625 10.7852 81.8633 11.4023 80.8398 11.8633L84.5312 18.8359V19H80.7578L77.5586 12.7539ZM74.7578 9.90625H77.5938C78.4766 9.90625 79.1602 9.68359 79.6445 9.23828C80.1289 8.78516 80.3711 8.16406 80.3711 7.375C80.3711 6.57031 80.1406 5.9375 79.6797 5.47656C79.2266 5.01562 78.5273 4.78516 77.582 4.78516H74.7578V9.90625ZM89.9219 19H86.5234V6.32031H89.9219V19ZM86.3242 3.03906C86.3242 2.53125 86.4922 2.11328 86.8281 1.78516C87.1719 1.45703 87.6367 1.29297 88.2227 1.29297C88.8008 1.29297 89.2617 1.45703 89.6055 1.78516C89.9492 2.11328 90.1211 2.53125 90.1211 3.03906C90.1211 3.55469 89.9453 3.97656 89.5938 4.30469C89.25 4.63281 88.793 4.79688 88.2227 4.79688C87.6523 4.79688 87.1914 4.63281 86.8398 4.30469C86.4961 3.97656 86.3242 3.55469 86.3242 3.03906ZM92.1953 12.543C92.1953 11.2852 92.4375 10.1641 92.9219 9.17969C93.4062 8.19531 94.1016 7.43359 95.0078 6.89453C95.9219 6.35547 96.9805 6.08594 98.1836 6.08594C99.8945 6.08594 101.289 6.60938 102.367 7.65625C103.453 8.70312 104.059 10.125 104.184 11.9219L104.207 12.7891C104.207 14.7344 103.664 16.2969 102.578 17.4766C101.492 18.6484 100.035 19.2344 98.207 19.2344C96.3789 19.2344 94.918 18.6484 93.8242 17.4766C92.7383 16.3047 92.1953 14.7109 92.1953 12.6953V12.543ZM95.582 12.7891C95.582 13.9922 95.8086 14.9141 96.2617 15.5547C96.7148 16.1875 97.3633 16.5039 98.207 16.5039C99.0273 16.5039 99.668 16.1914 100.129 15.5664C100.59 14.9336 100.82 13.9258 100.82 12.543C100.82 11.3633 100.59 10.4492 100.129 9.80078C99.668 9.15234 99.0195 8.82812 98.1836 8.82812C97.3555 8.82812 96.7148 9.15234 96.2617 9.80078C95.8086 10.4414 95.582 11.4375 95.582 12.7891Z" fill="#2B3AC6"/>
</svg>
